<svg xmlns="http://www.w3.org/2000/svg" xmlns:xlink="http://www.w3.org/1999/xlink" version="1.1" x="0px" y="0px" viewBox="0 0 164 164" enable-background="new 0 0 164 164" xml:space="preserve"><g><g><path d="M79.8,147.5c0-0.5-0.4-0.9-0.9-0.9H56.4c-0.5,0-0.9,0.4-0.9,0.9c0,0.5,0.4,0.9,0.9,0.9h22.5    C79.4,148.4,79.8,148,79.8,147.5z"></path></g><g><path d="M87.2,147.5c0-0.5-0.4-0.9-0.9-0.9h-3.7c-0.5,0-0.9,0.4-0.9,0.9c0,0.5,0.4,0.9,0.9,0.9h3.7    C86.8,148.4,87.2,148,87.2,147.5z"></path></g><g><path d="M89.4,148.4h2.5c0.5,0,0.9-0.4,0.9-0.9c0-0.5-0.4-0.9-0.9-0.9h-2.5c-0.5,0-0.9,0.4-0.9,0.9    C88.5,148,88.9,148.4,89.4,148.4z"></path></g><g><path d="M107.6,151.1H85.1c-0.5,0-0.9,0.4-0.9,0.9c0,0.5,0.4,0.9,0.9,0.9h22.5c0.5,0,0.9-0.4,0.9-0.9    C108.5,151.5,108.1,151.1,107.6,151.1z"></path></g><g><path d="M81.5,151.1h-3.7c-0.5,0-0.9,0.4-0.9,0.9c0,0.5,0.4,0.9,0.9,0.9h3.7c0.5,0,0.9-0.4,0.9-0.9    C82.4,151.5,82,151.1,81.5,151.1z"></path></g><g><path d="M74.6,151.1h-2.5c-0.5,0-0.9,0.4-0.9,0.9c0,0.5,0.4,0.9,0.9,0.9h2.5c0.5,0,0.9-0.4,0.9-0.9    C75.5,151.5,75.1,151.1,74.6,151.1z"></path></g><g><path d="M66.7,83.2c3.5,0,6.3-2.8,6.3-6.3c0-3.1-2.3-5.8-5.3-6.2c0.4-3.9,3.8-7,7.8-7h7c5.4,0,9.7-4.4,9.7-9.7v-4.5l3,3    c0.2,0.2,0.4,0.3,0.7,0.3c0.2,0,0.5-0.1,0.7-0.3c0.4-0.4,0.4-1,0-1.3l-4.6-4.6c-0.1-0.1-0.2-0.2-0.3-0.2c-0.2-0.1-0.5-0.1-0.7,0    c-0.1,0-0.2,0.1-0.3,0.2L86,51.2c-0.4,0.4-0.4,1,0,1.3c0.4,0.4,1,0.4,1.3,0l3-3V54c0,4.3-3.5,7.8-7.8,7.8h-7    c-5.1,0-9.2,3.9-9.7,8.8c-3.1,0.4-5.4,3.1-5.4,6.2C60.3,80.4,63.2,83.2,66.7,83.2z M66.7,72.5c2.5,0,4.4,2,4.4,4.4    c0,2.5-2,4.5-4.4,4.5s-4.5-2-4.5-4.5C62.2,74.5,64.2,72.5,66.7,72.5z"></path></g><g><path d="M95.8,70.1c-0.4-0.4-1-0.4-1.3,0l-4.3,4.3L86,70.1c-0.4-0.4-1-0.4-1.3,0c-0.4,0.4-0.4,1,0,1.3l4.3,4.3L84.6,80    c-0.4,0.4-0.4,1,0,1.3c0.2,0.2,0.4,0.3,0.7,0.3c0.2,0,0.5-0.1,0.7-0.3l4.3-4.3l4.3,4.3c0.2,0.2,0.4,0.3,0.7,0.3    c0.2,0,0.5-0.1,0.7-0.3c0.4-0.4,0.4-1,0-1.3l-4.3-4.3l4.3-4.3C96.2,71.1,96.2,70.5,95.8,70.1z"></path></g><g><path d="M62.1,54c0.2,0.2,0.4,0.3,0.7,0.3c0.2,0,0.5-0.1,0.7-0.3l4.3-4.3L72,54c0.2,0.2,0.4,0.3,0.7,0.3c0.2,0,0.5-0.1,0.7-0.3    c0.4-0.4,0.4-1,0-1.3L69,48.4l4.3-4.3c0.4-0.4,0.4-1,0-1.3c-0.4-0.4-1-0.4-1.3,0l-4.3,4.3l-4.3-4.3c-0.4-0.4-1-0.4-1.3,0    c-0.4,0.4-0.4,1,0,1.3l4.3,4.3l-4.3,4.3C61.7,53.1,61.7,53.7,62.1,54z"></path></g><g><path d="M147.6,124.6c6.3-11.2,9.7-24,9.7-36.9c0-12.8-3.3-25.4-9.4-36.5V41c0,0,0,0,0,0v-5.1c0,0,0,0,0,0v-2.7    c0-4.7-3.9-8.6-8.6-8.6c-3.9,0-7.1,2.5-8.2,6c-3.9-3.3-8.1-6.3-12.6-8.7v-1.3c0-3.4-2.8-6.2-6.2-6.2H98.9    c-1.4-0.3-2.8-0.6-4.2-0.8c-0.2-0.3-0.3-0.7-0.5-1.1C92.3,5.7,86,1,79,1c-7,0-13.3,4.7-15.3,11.4c-0.2,0.8-0.6,1.4-1.1,1.9H45.7    c-3.4,0-6.2,2.8-6.2,6.2v5.1C18.9,39.7,6.7,62.9,6.7,87.7C6.7,129.1,40.5,163,82,163c19.6,0,38.2-7.5,52.3-21.2h6.3    c5.4,0,9.9-4.1,10.2-9.2c0.2-2.8-0.8-5.4-2.6-7.4C148,125,147.8,124.8,147.6,124.6z M146,51.5v39.9h-3.3V41.9h3.3V51.5    C146,51.5,146,51.5,146,51.5C146,51.5,146,51.5,146,51.5z M146,40.1h-4.2h-9.3v-3.3H146V40.1z M140.9,41.9v49.5h-8.4V41.9H140.9z     M141.8,93.3h3.6l-6.1,11.6l-6.1-11.6H141.8z M139.3,26.4c3.7,0,6.8,3,6.8,6.8v1.8h-13.5v-1.8C132.5,29.5,135.5,26.4,139.3,26.4z     M130.7,32.8c0,0.1,0,0.3,0,0.4v2.7c0,0,0,0,0,0V41v51.3c0,0.1,0.1,0.3,0.1,0.4l7.7,14.5c0.2,0.3,0.5,0.5,0.8,0.5    c0.3,0,0.7-0.2,0.8-0.5l7.7-14.5c0-0.1,0.1-0.3,0.1-0.4v0v-37c4.9,10,7.6,21.2,7.6,32.4c0,12.5-3.2,24.9-9.3,35.8    c-1.5-1-3.3-1.5-5.2-1.5h-25c-4.3,0-7.9,2.6-9.5,6.2H87.5l-4.9-2.5c-0.2-0.1-0.5-0.1-0.7-0.1l-8.8,2.6c-0.4,0.1-0.7,0.5-0.7,0.9    v5.5c0,0.4,0.3,0.8,0.7,0.9l8.8,2.6c0.1,0,0.2,0,0.3,0c0.1,0,0.3,0,0.4-0.1l4.9-2.5h18.9c0.5,1.1,1.1,2.2,2,3.1    c0.4,0.5,0.9,0.9,1.5,1.3H50.5l1.9-4.8c0.9-0.3,1.8-0.7,2.7-1.1l6,2.6c0.4,0.2,0.8,0.1,1-0.2l5.7-5.7c0.3-0.3,0.3-0.7,0.2-1    l-2.6-6c0.4-0.9,0.8-1.8,1.1-2.7l4.4-1.7h41.3c3.4,0,6.2-2.8,6.2-6.2V24C122.8,26.5,126.9,29.4,130.7,32.8z M105.9,133.8H87.3    c-0.1,0-0.3,0-0.4,0.1l-4.8,2.4l-7.8-2.3v-4.1l7.8-2.3l4.8,2.4c0.1,0.1,0.3,0.1,0.4,0.1h18.6c-0.1,0.4-0.1,0.8-0.2,1.2    c0,0,0,0,0,0C105.6,132.1,105.7,132.9,105.9,133.8z M26.5,123.2c-0.5-1.1-1-2.1-1.3-3.2c-0.1-0.3-0.3-0.5-0.5-0.6l-5.9-2.4v-6.9    l5.9-2.4c0.3-0.1,0.5-0.3,0.5-0.6c0.3-1.1,0.8-2.1,1.3-3.2c0.1-0.2,0.1-0.5,0-0.8L24,97.4l4.8-4.8l5.9,2.5c0.3,0.1,0.5,0.1,0.8,0    c1.1-0.5,2.1-1,3.2-1.3c0.3-0.1,0.5-0.3,0.6-0.5l0.2-0.4v9.5c-4.3,2.1-7,6.5-7,11.3c0,7,5.7,12.6,12.6,12.6c4.8,0,9.2-2.7,11.3-7    h9.5l-0.4,0.2c-0.3,0.1-0.5,0.3-0.5,0.6c-1,3.1-1.7,3.2-1.4,4l2.5,5.9l-4.8,4.8l-5.9-2.5c-0.3-0.1-0.5-0.1-0.8,0    c-1,0.5-2.1,1-3.2,1.3c-0.3,0.1-0.5,0.3-0.6,0.5l-2.3,5.9h-6.9l-2.4-5.9c-0.1-0.3-0.3-0.5-0.6-0.5c-1.1-0.4-2.2-0.8-3.2-1.3    c-0.2-0.1-0.5-0.1-0.8,0l-5.9,2.5l-4.8-4.8l2.5-5.9C26.6,123.7,26.6,123.4,26.5,123.2z M45.7,119.2h8.6c-1.9,3.2-5.4,5.2-9.2,5.2    c-6,0-10.8-4.8-10.8-10.8c0-3.8,2-7.3,5.2-9.2v8.6C39.4,116.4,42.2,119.2,45.7,119.2z M79,2.9C85.2,2.9,90.7,7,92.5,13    c0.2,0.7,0.5,1.3,0.9,1.9c0,0,0,0,0,0c0.2,0.4,0.5,0.7,0.8,1c0,0,0,0,0.1,0.1c0.4,0.4,0.9,0.8,1.5,1c3,1.4,5.1,4.3,5.4,7.6H56.7    c0.3-3.3,2.4-6.2,5.4-7.6c0.5-0.2,1-0.6,1.5-1c0,0,0,0,0.1,0c0.8-0.8,1.4-1.8,1.7-2.9C67.2,7,72.8,2.9,79,2.9z M55.8,26.4h46.4    c0.5,0,0.9-0.4,0.9-0.9c0-0.6,0-1.1-0.1-1.7h6v85.9H48.9V23.8h6c-0.1,0.6-0.1,1.1-0.1,1.7C54.8,26,55.2,26.4,55.8,26.4z     M45.7,16.2h14.1c-2.1,1.4-3.6,3.4-4.4,5.8H48c-0.5,0-0.9,0.4-0.9,0.9v87.8c0,0.5,0.4,0.9,0.9,0.9h62c0.5,0,0.9-0.4,0.9-0.9V22.9    c0-0.5-0.4-0.9-0.9-0.9h-7.4c-0.8-2.3-2.3-4.4-4.4-5.8h14.1c2.4,0,4.4,2,4.4,4.4V113c0,2.4-2,4.4-4.4,4.4c-9.8,0-57.1,0-66.6,0    c-2.4,0-4.4-2-4.4-4.4c0-19.6,0-72.8,0-92.4C41.3,18.2,43.3,16.2,45.7,16.2z M39.4,27.9v59.8l-1.7,4.3c-0.9,0.3-1.8,0.7-2.7,1.1    l-6-2.6c-0.3-0.2-0.8-0.1-1,0.2l-5.7,5.7c-0.3,0.3-0.3,0.7-0.2,1l2.6,6c-0.4,0.9-0.8,1.8-1.1,2.7l-6.1,2.4    c-0.4,0.1-0.6,0.5-0.6,0.9v8.1c0,0.4,0.2,0.7,0.6,0.9l6.1,2.4c0.3,0.9,0.7,1.8,1.1,2.7l-2.6,6c0,0.1-0.1,0.2-0.1,0.3    C13.5,118,8.6,103.4,8.6,87.7C8.6,63.9,20.1,41.7,39.4,27.9z M23.3,131.7l4.7,4.7c0.3,0.3,0.7,0.3,1,0.2l6-2.6    c0.9,0.4,1.8,0.8,2.7,1.1l1.9,4.8h-9.1C27.9,137.4,25.5,134.6,23.3,131.7z M32.4,141.8h83.2h16c-13.6,12.5-31.1,19.3-49.6,19.3    C62.9,161.1,45.5,153.8,32.4,141.8z M148.9,132.5c-0.3,4.2-3.9,7.5-8.3,7.5c-6.2,0-18.8,0-25,0c-2.2,0-4.3-0.9-5.9-2.5    c-1.5-1.6-2.3-3.8-2.2-6c0.3-4.2,3.9-7.5,8.3-7.5h25c2.2,0,4.4,0.9,5.9,2.5C148.3,128.1,149.1,130.2,148.9,132.5z"></path></g><g><path d="M141.9,134.7h-27.3c-0.5,0-0.9,0.4-0.9,0.9c0,0.5,0.4,0.9,0.9,0.9h27.3c0.5,0,0.9-0.4,0.9-0.9    C142.8,135.2,142.4,134.7,141.9,134.7z"></path></g><g><path d="M141.9,127.3h-27.3c-0.5,0-0.9,0.4-0.9,0.9c0,0.5,0.4,0.9,0.9,0.9h27.3c0.5,0,0.9-0.4,0.9-0.9    C142.8,127.7,142.4,127.3,141.9,127.3z"></path></g><g><path d="M79,14.6c2.4,0,4.4-2,4.4-4.4c0-2.4-2-4.4-4.4-4.4c-2.4,0-4.4,2-4.4,4.4C74.5,12.7,76.5,14.6,79,14.6z M79,7.7    c1.4,0,2.6,1.1,2.6,2.6c0,1.4-1.1,2.6-2.6,2.6c-1.4,0-2.6-1.1-2.6-2.6C76.4,8.8,77.5,7.7,79,7.7z"></path></g></g></svg>